<?xml version="1.0" encoding="utf-8"?>
<!-- Generator: Adobe Illustrator 16.0.0, SVG Export Plug-In . SVG Version: 6.00 Build 0)  -->
<!DOCTYPE svg PUBLIC "-//W3C//DTD SVG 1.1//EN" "http://www.w3.org/Graphics/SVG/1.1/DTD/svg11.dtd">
<svg version="1.1" id="Layer_4" xmlns="http://www.w3.org/2000/svg" xmlns:xlink="http://www.w3.org/1999/xlink" x="0px" y="0px"
	 width="304.853px" height="261.855px" viewBox="0 0 304.853 261.855" enable-background="new 0 0 304.853 261.855"
	 xml:space="preserve">
<g>
	<linearGradient id="SVGID_1_" gradientUnits="userSpaceOnUse" x1="8.8818" y1="130.9277" x2="293.6211" y2="130.9277">
		<stop  offset="0" style="stop-color:#B5DA60"/>
		<stop  offset="1" style="stop-color:#4DB544"/>
	</linearGradient>
	<path fill="url(#SVGID_1_)" d="M105.661,261.855c-16.5,0-36.75-11.691-45-25.98l-45.591-78.966c-8.25-14.29-8.25-37.672,0-51.962
		l45.591-78.966c8.25-14.29,28.5-25.981,45-25.981h91.182c16.5,0,36.75,11.691,45,25.981l45.591,78.966
		c8.25,14.29,8.25,37.672,0,51.962l-45.591,78.966c-8.25,14.289-28.5,25.98-45,25.98H105.661z"/>
	<path fill="#4DB544" d="M21.274,55.618c-0.046-0.574-0.077-1.152-0.077-1.737c0-11.848,9.604-21.453,21.453-21.453
		c0.111,0,0.22,0.006,0.331,0.008C44.338,21.895,53.34,13.748,64.25,13.748c9.42,0,17.415,6.073,20.299,14.516
		c8.413,0.72,15.082,7.534,15.57,16.011c0.873-0.108,1.759-0.17,2.66-0.17c8.261,0,15.426,4.671,19.011,11.514H21.274z"/>
	<linearGradient id="SVGID_2_" gradientUnits="userSpaceOnUse" x1="166.1274" y1="178.3682" x2="276.1275" y2="259.3683">
		<stop  offset="0" style="stop-color:#4DB544"/>
		<stop  offset="1" style="stop-color:#B5DA60"/>
	</linearGradient>
	<path fill="url(#SVGID_2_)" d="M284.992,161.139l-37.976-37.976l-177.791,84.27l54.423,54.423h73.194c16.5,0,36.75-11.691,45-25.98
		L284.992,161.139z"/>
	<linearGradient id="SVGID_3_" gradientUnits="userSpaceOnUse" x1="221.9097" y1="211.0166" x2="257.7139" y2="237.3816">
		<stop  offset="0" style="stop-color:#4DB544"/>
		<stop  offset="1" style="stop-color:#B5DA60"/>
	</linearGradient>
	<path fill="url(#SVGID_3_)" d="M191.226,219.313l33.51,33.511c7.185-4.559,13.375-10.486,17.106-16.949l19.014-32.932
		l-11.285-11.285L191.226,219.313z"/>
	<g>
		<path fill="#D9E1E4" d="M13.357,172.442c-0.138-1.174-0.226-2.354-0.226-3.564c0-16.618,13.47-30.093,30.092-30.093
			c2.818,0,5.542,0.414,8.133,1.143c2.949-21.518,21.394-38.109,43.734-38.109c24.389,0,44.16,19.773,44.16,44.15
			c0,0.1-0.003,0.194-0.003,0.292c13.43,1.533,23.863,12.925,23.863,26.765c0,14.885-12.062,26.949-26.945,26.949H90.814H77.547
			H65.666H39.243H14.96c-0.006-0.018-0.014-0.038-0.021-0.058c-0.387,0.031-0.771,0.058-1.164,0.058
			C6.167,199.975,0,193.808,0,186.196C0,178.729,5.942,172.66,13.357,172.442z"/>
	</g>
	<path fill="#B6C2C9" d="M109.888,181.837v-70.909L97.786,98.825c-22.203,0.151-40.494,16.683-43.43,38.103
		c-2.591-0.729-5.314-1.143-8.133-1.143c-4.256,0-8.302,0.888-11.972,2.481v43.57c0,3.917,3.176,7.091,7.092,7.091h61.454
		C106.713,188.928,109.888,185.754,109.888,181.837z"/>
	<g>
		<path fill="#B5DA60" d="M39.918,135.261h-2c0-1.339,0.024-2.696,0.071-4.033l1.999,0.07
			C39.942,132.612,39.918,133.945,39.918,135.261z M259.915,134.428c-0.009-1.317-0.043-2.649-0.099-3.959l1.998-0.086
			c0.058,1.333,0.091,2.689,0.101,4.03L259.915,134.428z M40.199,127.341l-1.995-0.142c0.095-1.338,0.216-2.69,0.358-4.019
			l1.989,0.213C40.411,124.699,40.292,126.027,40.199,127.341z M259.576,126.513c-0.104-1.313-0.232-2.64-0.382-3.944l1.987-0.229
			c0.152,1.328,0.283,2.678,0.388,4.015L259.576,126.513z M41.044,119.463l-1.979-0.285c0.191-1.327,0.408-2.667,0.646-3.982
			l1.968,0.355C41.446,116.843,41.232,118.159,41.044,119.463z M258.671,118.641c-0.197-1.299-0.42-2.614-0.664-3.906l1.965-0.371
			c0.249,1.316,0.477,2.655,0.677,3.978L258.671,118.641z M42.455,111.666l-1.954-0.427c0.286-1.306,0.599-2.627,0.933-3.925
			l1.937,0.497C43.043,109.086,42.735,110.383,42.455,111.666z M257.202,110.855c-0.291-1.284-0.609-2.578-0.945-3.849l1.933-0.512
			c0.343,1.293,0.667,2.611,0.963,3.918L257.202,110.855z M44.426,103.991l-1.918-0.567c0.379-1.279,0.788-2.573,1.215-3.848
			l1.896,0.636C45.2,101.463,44.798,102.735,44.426,103.991z M255.172,103.195c-0.384-1.26-0.795-2.528-1.223-3.769l1.892-0.651
			c0.435,1.264,0.854,2.556,1.244,3.838L255.172,103.195z M46.954,96.469l-1.872-0.705c0.473-1.254,0.976-2.519,1.496-3.759
			l1.845,0.772C47.912,93.996,47.417,95.237,46.954,96.469z M252.591,95.704c-0.472-1.224-0.972-2.456-1.487-3.66l1.839-0.786
			c0.524,1.226,1.034,2.48,1.515,3.727L252.591,95.704z M50.023,89.143l-1.815-0.84c0.565-1.223,1.159-2.447,1.764-3.638
			l1.783,0.905C51.161,86.74,50.579,87.942,50.023,89.143z M249.485,88.438c-0.557-1.183-1.146-2.375-1.749-3.545l1.777-0.917
			c0.615,1.191,1.214,2.406,1.781,3.611L249.485,88.438z M53.614,82.063l-1.749-0.969c0.649-1.172,1.329-2.35,2.021-3.5l1.714,1.031
			C54.919,79.755,54.251,80.911,53.614,82.063z M245.86,81.412c-0.644-1.144-1.317-2.292-2.002-3.412l1.707-1.043
			c0.697,1.141,1.383,2.31,2.038,3.475L245.86,81.412z M57.706,75.263l-1.675-1.092c0.733-1.125,1.496-2.249,2.266-3.343
			l1.635,1.152C59.174,73.055,58.425,74.159,57.706,75.263z M241.735,74.66c-0.723-1.093-1.478-2.191-2.242-3.262l1.627-1.162
			c0.779,1.091,1.547,2.208,2.283,3.321L241.735,74.66z M62.274,68.78l-1.593-1.21c0.809-1.064,1.649-2.131,2.5-3.17l1.548,1.267
			C63.894,66.687,63.068,67.734,62.274,68.78z M237.134,68.218c-0.804-1.043-1.635-2.084-2.472-3.094l1.54-1.276
			c0.852,1.028,1.699,2.088,2.516,3.15L237.134,68.218z M67.293,62.642l-1.502-1.32c0.885-1.006,1.799-2.009,2.719-2.982
			l1.454,1.374C69.061,60.669,68.162,61.655,67.293,62.642z M232.081,62.12c-0.871-0.979-1.775-1.958-2.688-2.911l1.445-1.383
			c0.929,0.97,1.85,1.967,2.736,2.963L232.081,62.12z M72.738,56.882l-1.403-1.425c0.951-0.937,1.935-1.872,2.924-2.779l1.352,1.475
			C74.639,55.043,73.672,55.962,72.738,56.882z M226.602,56.396c-0.939-0.914-1.912-1.826-2.891-2.711l1.342-1.483
			c0.997,0.902,1.987,1.831,2.943,2.761L226.602,56.396z M78.578,51.529l-1.298-1.521c1.016-0.866,2.063-1.728,3.114-2.562
			l1.243,1.567C80.605,49.832,79.576,50.678,78.578,51.529z M220.725,51.077c-1.008-0.849-2.044-1.689-3.078-2.499l1.232-1.575
			c1.053,0.824,2.107,1.68,3.134,2.544L220.725,51.077z M84.784,46.609l-1.186-1.61c1.079-0.795,2.186-1.579,3.289-2.331
			l1.126,1.652C86.93,45.059,85.843,45.829,84.784,46.609z M214.48,46.19c-1.067-0.774-2.161-1.539-3.251-2.272l1.116-1.659
			c1.11,0.746,2.224,1.524,3.31,2.313L214.48,46.19z M91.322,42.149l-1.067-1.691c1.137-0.717,2.296-1.419,3.445-2.087l1.005,1.729
			C93.577,40.755,92.438,41.445,91.322,42.149z M207.897,41.763c-1.118-0.694-2.264-1.378-3.407-2.033l0.993-1.735
			c1.164,0.666,2.332,1.363,3.47,2.07L207.897,41.763z M98.161,38.173l-0.942-1.764c1.176-0.628,2.382-1.245,3.585-1.833
			l0.878,1.797C100.5,36.951,99.316,37.557,98.161,38.173z M201.01,37.82c-1.164-0.612-2.357-1.211-3.547-1.783l0.865-1.803
			c1.212,0.582,2.428,1.192,3.612,1.815L201.01,37.82z M105.263,34.702l-0.812-1.827c1.217-0.542,2.464-1.069,3.705-1.568
			l0.746,1.855C107.683,33.652,106.458,34.17,105.263,34.702z M193.852,34.384c-1.217-0.53-2.452-1.042-3.669-1.521l0.732-1.861
			c1.24,0.488,2.497,1.009,3.736,1.549L193.852,34.384z M112.605,31.75l-0.679-1.882c1.253-0.451,2.538-0.889,3.82-1.299l0.61,1.904
			C115.097,30.877,113.834,31.307,112.605,31.75z M186.459,31.475c-1.24-0.437-2.509-0.858-3.772-1.251l0.595-1.909
			c1.287,0.401,2.579,0.83,3.842,1.274L186.459,31.475z M120.151,29.336l-0.539-1.926c1.298-0.364,2.611-0.707,3.904-1.019
			l0.469,1.944C122.716,28.642,121.426,28.979,120.151,29.336z M178.882,29.114c-1.259-0.343-2.552-0.67-3.841-0.972l0.455-1.947
			c1.312,0.307,2.629,0.64,3.912,0.989L178.882,29.114z M127.853,27.474l-0.399-1.96c1.307-0.266,2.642-0.513,3.967-0.733
			l0.328,1.973C130.448,26.97,129.137,27.213,127.853,27.474z M171.167,27.311c-1.29-0.252-2.603-0.485-3.902-0.69l0.312-1.976
			c1.323,0.209,2.66,0.446,3.974,0.703L171.167,27.311z M135.669,26.175l-0.256-1.983c1.332-0.172,2.681-0.322,4.01-0.445
			l0.185,1.991C138.303,25.858,136.978,26.006,135.669,26.175z M163.34,26.072c-1.3-0.158-2.626-0.295-3.941-0.408l0.17-1.993
			c1.339,0.115,2.689,0.254,4.013,0.416L163.34,26.072z M143.56,25.442l-0.114-1.997c1.336-0.076,2.692-0.129,4.032-0.158l0.042,2
			C146.205,25.315,144.872,25.367,143.56,25.442z M155.445,25.397c-1.317-0.065-2.65-0.107-3.961-0.125l0.028-2
			c1.334,0.019,2.691,0.062,4.032,0.127L155.445,25.397z"/>
	</g>
	<g>
		<linearGradient id="SVGID_4_" gradientUnits="userSpaceOnUse" x1="158.2515" y1="24.9277" x2="168.2515" y2="24.9277">
			<stop  offset="0" style="stop-color:#E04037"/>
			<stop  offset="1" style="stop-color:#F95830"/>
		</linearGradient>
		<polygon fill="url(#SVGID_4_)" points="158.251,20.594 158.251,29.26 168.251,37.928 168.251,11.928 		"/>
		<linearGradient id="SVGID_5_" gradientUnits="userSpaceOnUse" x1="127.2515" y1="24.9277" x2="159.2515" y2="24.9277">
			<stop  offset="0" style="stop-color:#E04037"/>
			<stop  offset="1" style="stop-color:#F95830"/>
		</linearGradient>
		<path fill="url(#SVGID_5_)" d="M159.251,37.928c0,1.656-1.343,3-3,3h-26c-1.656,0-3-1.344-3-3v-26c0-1.658,1.344-3,3-3h26
			c1.657,0,3,1.342,3,3V37.928z"/>
		<polygon fill="#FFFFFF" points="141.251,19.928 141.251,29.928 148.251,24.928 		"/>
	</g>
	<path fill="#5E7382" d="M234.895,204.217c0,2.629-2.127,4.758-4.756,4.758H71.586c-2.629,0-4.76-2.129-4.76-4.758v-103.06
		c0-2.629,2.131-4.757,4.76-4.757h158.553c2.629,0,4.756,2.128,4.756,4.757V204.217z"/>
	<path fill="#2F4A60" d="M142.584,96.4v42.77c0,3.917,3.176,7.091,7.092,7.091h61.454c3.916,0,7.091-3.174,7.091-7.091V96.4H142.584
		z"/>
	<g>
		<linearGradient id="SVGID_6_" gradientUnits="userSpaceOnUse" x1="72.2515" y1="114.2002" x2="212.2515" y2="114.2002">
			<stop  offset="0" style="stop-color:#B550EA"/>
			<stop  offset="1" style="stop-color:#2642DC"/>
		</linearGradient>
		<path fill="url(#SVGID_6_)" d="M81.796,165.109c-5.271,0-9.545-4.272-9.545-9.545V72.837c0-5.273,4.273-9.545,9.545-9.545h120.909
			c5.271,0,9.546,4.272,9.546,9.545v82.728c0,5.272-4.274,9.545-9.546,9.545H81.796z"/>
		<linearGradient id="SVGID_7_" gradientUnits="userSpaceOnUse" x1="72.2515" y1="114.2002" x2="142.2515" y2="114.2002">
			<stop  offset="0" style="stop-color:#B550EA"/>
			<stop  offset="1" style="stop-color:#2642DC"/>
		</linearGradient>
		<path fill="url(#SVGID_7_)" d="M142.251,63.292H81.796c-5.271,0-9.545,4.272-9.545,9.545v82.728c0,5.272,4.273,9.545,9.545,9.545
			h60.455V63.292z"/>
		<rect x="78.615" y="69.655" fill="#EDEDED" width="63.637" height="89.091"/>
		<rect x="142.251" y="69.655" fill="#B3B3B3" width="63.636" height="89.091"/>
		<polygon fill="#CBCBCB" points="196.342,168.291 142.251,158.746 142.251,69.655 196.342,60.109 		"/>
		<polygon fill="#E2E2E2" points="180.433,171.473 142.251,158.746 142.251,69.655 180.433,56.928 		"/>
		<g>
			<rect x="88.161" y="107.837" fill="#B5D1DE" width="44.545" height="6.363"/>
			<rect x="88.161" y="120.564" fill="#B5D1DE" width="44.545" height="6.364"/>
			<rect x="88.161" y="133.292" fill="#B5D1DE" width="44.545" height="6.364"/>
			<rect x="88.161" y="95.109" fill="#B5D1DE" width="39.091" height="6.364"/>
		</g>
	</g>
	<g>
		<path fill="#F3F3F3" d="M108.888,174.837c0,3.917-3.175,7.091-7.091,7.091H40.343c-3.916,0-7.092-3.174-7.092-7.091V85.019
			c0-3.917,3.176-7.091,7.092-7.091h42.545l26,26V174.837z"/>
		<polygon fill="#E2E2E2" points="85.251,101.564 108.888,124.891 108.888,103.928 106.525,101.564 		"/>
		<linearGradient id="SVGID_8_" gradientUnits="userSpaceOnUse" x1="82.8882" y1="90.9277" x2="108.8882" y2="90.9277">
			<stop  offset="0" style="stop-color:#39CBFF"/>
			<stop  offset="1" style="stop-color:#007ACD"/>
		</linearGradient>
		<path fill="url(#SVGID_8_)" d="M82.888,77.928v18.909c0,3.917,3.175,7.091,7.091,7.091h18.909L82.888,77.928z"/>
		<rect x="47.434" y="134.655" fill="#B0D9EF" width="47.272" height="4.727"/>
		<rect x="47.434" y="144.109" fill="#B0D9EF" width="47.272" height="4.728"/>
		<rect x="47.434" y="153.564" fill="#B0D9EF" width="47.272" height="4.727"/>
		<rect x="47.434" y="125.2" fill="#B0D9EF" width="35.454" height="4.728"/>
	</g>
	<g>
		<g>
			<polygon fill="#B5DA60" points="287.047,123.945 283.761,123.945 283.761,103.013 304.853,98.794 304.853,120.384 
				301.565,120.384 301.565,102.805 287.047,105.707 			"/>
		</g>
		<g>
			<polygon fill="#B5DA60" points="286.091,110.903 285.446,105.489 303.251,101.928 303.896,107.342 			"/>
		</g>
		<g>
			<circle fill="#B5DA60" cx="281.843" cy="123.945" r="3.561"/>
			<path fill="#B5DA60" d="M281.843,129.15c-2.87,0-5.204-2.334-5.204-5.205c0-2.87,2.334-5.203,5.204-5.203
				s5.204,2.333,5.204,5.203C287.047,126.816,284.712,129.15,281.843,129.15z M281.843,122.029c-1.057,0-1.918,0.86-1.918,1.916
				c0,1.058,0.861,1.919,1.918,1.919s1.918-0.861,1.918-1.919C283.761,122.889,282.9,122.029,281.843,122.029z"/>
		</g>
		<g>
			<circle fill="#B5DA60" cx="299.647" cy="120.384" r="3.561"/>
			<path fill="#B5DA60" d="M299.647,125.589c-2.87,0-5.204-2.335-5.204-5.205c0-2.868,2.334-5.204,5.204-5.204
				s5.205,2.335,5.205,5.204C304.853,123.254,302.517,125.589,299.647,125.589z M299.647,118.468c-1.057,0-1.917,0.86-1.917,1.916
				c0,1.058,0.861,1.919,1.917,1.919c1.058,0,1.917-0.861,1.917-1.919C301.565,119.328,300.705,118.468,299.647,118.468z"/>
		</g>
	</g>
	<rect x="221.918" y="59.595" fill="#FFFFFF" width="42" height="27.333"/>
	<linearGradient id="SVGID_9_" gradientUnits="userSpaceOnUse" x1="57.312" y1="162.9746" x2="246.7852" y2="162.9746">
		<stop  offset="0" style="stop-color:#FEB422"/>
		<stop  offset="1" style="stop-color:#F95830"/>
	</linearGradient>
	<path fill="url(#SVGID_9_)" d="M246.785,123.729c0-2.625-2.127-4.754-4.752-4.754h-80.408l-6.847,11.101H62.07
		c-2.628,0-4.758,2.129-4.758,4.756l9.514,67.385c0,2.625,2.131,4.758,4.76,4.758h158.553c2.629,0,4.756-2.133,4.756-4.758
		L246.785,123.729z"/>
	<linearGradient id="SVGID_10_" gradientUnits="userSpaceOnUse" x1="57.312" y1="164.9746" x2="246.7852" y2="164.9746">
		<stop  offset="0" style="stop-color:#FFDF7D"/>
		<stop  offset="1" style="stop-color:#FEB422"/>
	</linearGradient>
	<path fill="url(#SVGID_10_)" d="M246.785,125.729c0-2.625-2.127-4.754-4.752-4.754h-80.408l-6.847,11.101H62.07
		c-2.628,0-4.758,2.129-4.758,4.756l9.514,67.385c0,2.625,2.131,4.758,4.76,4.758h158.553c2.629,0,4.756-2.133,4.756-4.758
		L246.785,125.729z"/>
	<circle fill="#FFCC59" cx="231.164" cy="68.928" r="2.913"/>
	<polygon fill="#B5DA60" points="231.188,82.17 249.977,82.17 240.582,69.019 	"/>
	<polygon fill="#B5DA60" points="258.918,71.969 254.036,65.134 241.855,82.188 258.918,82.188 	"/>
	<polygon fill="#FEB422" points="152.298,208.928 140.857,185.503 106.517,185.503 117.958,208.928 	"/>
	<polygon fill="#FFFFFF" points="139.986,220.461 139.986,185.503 105.646,185.503 105.646,220.461 94.517,220.461 108.667,234.256 
		122.816,248.053 136.962,234.256 151.111,220.461 	"/>
	<polygon fill="#FFA241" points="243.342,148.457 174.918,148.457 174.918,189.123 237.181,189.123 	"/>
	<g>
		<linearGradient id="SVGID_11_" gradientUnits="userSpaceOnUse" x1="167.585" y1="162.123" x2="299.585" y2="162.123">
			<stop  offset="0" style="stop-color:#39CBFF"/>
			<stop  offset="1" style="stop-color:#007ACD"/>
		</linearGradient>
		<rect x="167.585" y="141.79" fill="url(#SVGID_11_)" width="132" height="40.666"/>
		<g>
			<g>
				<rect x="213.065" y="158.676" fill="#F3F3F3" width="2" height="6.895"/>
			</g>
			<g>
				<rect x="176.919" y="154.429" fill="#F3F3F3" width="2" height="15.389"/>
			</g>
			<g>
				<rect x="181.437" y="157.084" fill="#F3F3F3" width="2" height="10.078"/>
			</g>
			<g>
				<rect x="185.956" y="159.736" fill="#F3F3F3" width="2" height="4.773"/>
			</g>
			<g>
				<rect x="190.474" y="156.553" fill="#F3F3F3" width="2" height="11.141"/>
			</g>
			<g>
				<rect x="194.992" y="149.123" fill="#F3F3F3" width="2" height="26"/>
			</g>
			<g>
				<rect x="199.51" y="153.369" fill="#F3F3F3" width="2" height="17.508"/>
			</g>
			<g>
				<rect x="204.029" y="151.777" fill="#F3F3F3" width="2" height="20.691"/>
			</g>
			<g>
				<rect x="208.546" y="149.123" fill="#F3F3F3" width="2" height="26"/>
			</g>
			<g>
				<rect x="217.583" y="154.961" fill="#F3F3F3" width="2" height="14.324"/>
			</g>
			<g>
				<rect x="222.102" y="152.837" fill="#F3F3F3" width="2" height="18.572"/>
			</g>
			<g>
				<rect x="226.62" y="149.123" fill="#F3F3F3" width="2" height="26"/>
			</g>
			<g>
				<rect x="231.138" y="154.431" fill="#F3F3F3" width="2" height="15.386"/>
			</g>
			<g>
				<rect x="235.657" y="151.777" fill="#F3F3F3" width="2" height="20.691"/>
			</g>
			<g>
				<rect x="240.175" y="155.492" fill="#F3F3F3" width="2" height="13.262"/>
			</g>
			<g>
				<rect x="244.693" y="151.778" fill="#F3F3F3" width="2" height="20.69"/>
			</g>
			<g>
				<rect x="249.211" y="155.492" fill="#F3F3F3" width="2" height="13.262"/>
			</g>
			<g>
				<rect x="253.73" y="155.492" fill="#F3F3F3" width="2" height="13.262"/>
			</g>
			<g>
				<rect x="258.248" y="151.777" fill="#F3F3F3" width="2" height="20.691"/>
			</g>
		</g>
		<path fill="#FFFFFF" d="M279.751,149.123c-7.18,0-13,5.82-13,13s5.82,13,13,13s13-5.82,13-13S286.931,149.123,279.751,149.123z
			 M278.085,168.789h-4v-13.332h4V168.789z M285.418,168.789h-4v-13.332h4V168.789z"/>
	</g>
	<g>
		<path fill="#F3F3F3" d="M263.292,208.983c0.07-0.6,0.115-1.203,0.115-1.821c0-8.492-6.883-15.378-15.377-15.378
			c-1.44,0-2.833,0.212-4.157,0.584c-1.506-10.996-10.933-19.475-22.349-19.475c-12.463,0-22.567,10.104-22.567,22.562
			c0,0.051,0.002,0.1,0.002,0.149c-6.862,0.783-12.194,6.604-12.194,13.677c0,7.606,6.164,13.771,13.77,13.771h23.175h6.779h6.071
			h13.503h12.408c0.003-0.009,0.007-0.02,0.011-0.029c0.197,0.016,0.394,0.029,0.595,0.029c3.888,0,7.04-3.151,7.04-7.041
			C270.117,212.196,267.081,209.095,263.292,208.983z"/>
		<g>
			<path fill="none" stroke="#B5D1DE" stroke-width="3" d="M263.036,216.045L263.036,216.045z"/>
		</g>
		<g>
			<path fill="#D8E5ED" d="M257.829,208.345l-2.979-0.354c0.038-0.319,0.057-0.591,0.057-0.829c0-3.793-3.085-6.878-6.877-6.878v-3
				c5.446,0,9.877,4.432,9.877,9.878C257.907,207.513,257.881,207.899,257.829,208.345z"/>
		</g>
		<g>
			<path fill="#D8E5ED" d="M204.46,195.622l-0.002-0.212c0-9.391,7.656-17.017,17.067-17.017v3c-7.757,0-14.067,6.28-14.067,13.999
				l0.002,0.194L204.46,195.622z"/>
		</g>
	</g>
</g>
</svg>
