<?xml version="1.0" encoding="utf-8"?>
<!-- Generator: Adobe Illustrator 16.0.0, SVG Export Plug-In . SVG Version: 6.00 Build 0)  -->
<!DOCTYPE svg PUBLIC "-//W3C//DTD SVG 1.1//EN" "http://www.w3.org/Graphics/SVG/1.1/DTD/svg11.dtd">
<svg version="1.1" id="Layer_4" xmlns="http://www.w3.org/2000/svg" xmlns:xlink="http://www.w3.org/1999/xlink" x="0px" y="0px"
	 width="284.739px" height="261.855px" viewBox="0 0 284.739 261.855" enable-background="new 0 0 284.739 261.855"
	 xml:space="preserve">
<g>
	<linearGradient id="SVGID_1_" gradientUnits="userSpaceOnUse" x1="0" y1="130.9277" x2="284.7393" y2="130.9277">
		<stop  offset="0" style="stop-color:#28F2EC"/>
		<stop  offset="1" style="stop-color:#88EEBE"/>
	</linearGradient>
	<path fill="url(#SVGID_1_)" d="M96.778,261.855c-16.5,0-36.75-11.691-45-25.98L6.188,156.909c-8.25-14.29-8.25-37.672,0-51.962
		l45.591-78.966C60.028,11.691,80.278,0,96.778,0h91.182c16.5,0,36.75,11.691,45,25.98l45.592,78.967
		c8.25,14.29,8.25,37.672,0,51.962l-45.592,78.966c-8.25,14.289-28.5,25.98-45,25.98H96.778z"/>
	<linearGradient id="SVGID_2_" gradientUnits="userSpaceOnUse" x1="115.9492" y1="113.3286" x2="284.7373" y2="113.3286">
		<stop  offset="0" style="stop-color:#17D0B4"/>
		<stop  offset="1" style="stop-color:#88EEBE"/>
	</linearGradient>
	<path fill="url(#SVGID_2_)" d="M200.028,53.89l-33.167-33.167l-50.912,50.912l134.298,134.298l28.305-49.024
		c7.195-12.464,8.111-31.842,2.754-46.074l-69.111-69.111L200.028,53.89z"/>
	<linearGradient id="SVGID_3_" gradientUnits="userSpaceOnUse" x1="41.9941" y1="240.3916" x2="242.7451" y2="240.3916">
		<stop  offset="0" style="stop-color:#17D0B4"/>
		<stop  offset="1" style="stop-color:#88EEBE"/>
	</linearGradient>
	<path fill="url(#SVGID_3_)" d="M41.994,218.928l9.784,16.947c8.25,14.289,28.5,25.98,45,25.98h91.182c16.5,0,36.75-11.691,45-25.98
		l9.785-16.947H41.994z"/>
	<path fill="#17D0B4" d="M223.272,157.483l4.615,4.633l4.464-3.762c1.802,1.23,3.769,2.097,5.814,2.595l0.488,5.99l6.54,0.016
		l0.498-5.811c2.072-0.392,4.086-1.153,5.941-2.282l4.582,3.894l4.637-4.617l-3.76-4.461c1.229-1.799,2.094-3.771,2.593-5.815
		l5.991-0.489l0.015-6.541l-5.812-0.495c-0.392-2.071-1.154-4.088-2.283-5.943l3.893-4.583l-4.613-4.636l-4.463,3.759
		c-1.8-1.229-3.771-2.095-5.814-2.588l-0.486-5.993l-6.543-0.014l-0.496,5.812c-2.072,0.388-4.088,1.152-5.946,2.285l-4.577-3.898
		l-4.637,4.617l3.758,4.462c-1.228,1.799-2.093,3.77-2.588,5.815l-5.995,0.486l-0.016,6.542l5.813,0.496
		c0.391,2.071,1.154,4.088,2.281,5.944L223.272,157.483z M236.284,137.524c3.382-3.366,8.851-3.356,12.219,0.026
		c3.369,3.382,3.357,8.849-0.023,12.218c-3.381,3.366-8.853,3.356-12.22-0.026C232.892,146.36,232.903,140.891,236.284,137.524z"/>
	<g>
		<g>
			<g>
				<path fill="#17D0B4" d="M257.39,179.681c-1.741,0-3.379-0.679-4.611-1.911c-2.54-2.539-2.54-6.674-0.001-9.216
					c1.232-1.231,2.869-1.908,4.609-1.908c1.741,0,3.378,0.678,4.608,1.908c2.541,2.543,2.541,6.679,0.002,9.219
					C260.766,179.003,259.13,179.681,257.39,179.681z M257.387,169.646c-0.939,0-1.823,0.365-2.487,1.029
					c-1.37,1.372-1.37,3.604,0,4.974c1.332,1.33,3.648,1.33,4.977,0.002c1.37-1.37,1.369-3.603-0.003-4.976
					C259.21,170.011,258.326,169.646,257.387,169.646z"/>
			</g>
			<g>
				<g>
					
						<rect x="249.689" y="166.268" transform="matrix(0.707 0.7072 -0.7072 0.707 192.481 -129.0567)" fill="#17D0B4" width="4.607" height="3"/>
				</g>
				<g>
					
						<rect x="260.547" y="176.892" transform="matrix(0.7072 0.707 -0.707 0.7072 203.0094 -133.4393)" fill="#17D0B4" width="4.143" height="3"/>
				</g>
			</g>
			<g>
				<g>
					
						<rect x="248.742" y="173.007" transform="matrix(0.259 0.9659 -0.9659 0.259 354.5217 -111.9746)" fill="#17D0B4" width="3.001" height="4.143"/>
				</g>
				<g>
					
						<rect x="263.033" y="169.177" transform="matrix(0.2584 0.966 -0.966 0.2584 361.6005 -128.5536)" fill="#17D0B4" width="3" height="4.144"/>
				</g>
			</g>
			<g>
				<g>
					
						<rect x="253.972" y="178.237" transform="matrix(0.9659 0.259 -0.259 0.9659 55.4271 -60.0231)" fill="#17D0B4" width="3.001" height="4.142"/>
				</g>
				<g>
					
						<rect x="257.801" y="163.947" transform="matrix(0.9659 0.259 -0.259 0.9659 51.8561 -61.5027)" fill="#17D0B4" width="3.001" height="4.142"/>
				</g>
			</g>
		</g>
	</g>
	<g>
		<path fill="#2F4A60" d="M157.756,186.844v-78.381c0-2.034-1.655-3.688-3.691-3.688H26.784c-2.033,0-3.689,1.654-3.689,3.688
			v78.381H157.756z"/>
		<linearGradient id="SVGID_4_" gradientUnits="userSpaceOnUse" x1="42.6934" y1="193.2197" x2="138.1555" y2="97.7576">
			<stop  offset="0" style="stop-color:#17ABFE"/>
			<stop  offset="1" style="stop-color:#B5DA60"/>
		</linearGradient>
		<rect x="29.353" y="111.098" fill="url(#SVGID_4_)" width="122.144" height="68.781"/>
		<path fill="#F3F3F3" d="M22.831,186.994v11.332c0,2.183,1.771,3.951,3.953,3.951h127.28c2.185,0,3.956-1.769,3.956-3.951v-11.332
			H22.831z"/>
		<path fill="#E5E8EC" d="M113.709,218.973c0,0-0.979-0.483-2.104-0.908c-1.201-0.452-2.646-1.017-3.494-1.424
			c-1.492-0.715-1.619-1.186-2.176-3.625c-0.608-2.662-1.178-8.285-1.407-10.738h-28.2c-0.23,2.453-0.799,8.076-1.407,10.738
			c-0.556,2.439-0.684,2.91-2.175,3.625c-0.841,0.402-2.263,0.961-3.455,1.408l0,0c-1.145,0.434-2.078,0.765-2.078,0.765
			s-0.905,0.503,0.55,0.575h45.332C114.461,219.414,113.709,218.973,113.709,218.973z"/>
		<path fill="#CDD5D7" d="M104.821,205.238c-0.125-1.165-0.228-2.212-0.298-2.961H76.325c-0.07,0.749-0.171,1.796-0.297,2.961
			H104.821z"/>
	</g>
	<g>
		<rect x="37.563" y="115.604" fill="#FFFFFF" width="99.591" height="60.324"/>
		<rect x="37.563" y="115.604" fill="#D9E1E4" width="99.591" height="8.76"/>
		<g>
			<rect x="40.403" y="118.393" fill="#879BA6" width="2.544" height="3"/>
		</g>
		<g>
			<rect x="45.362" y="118.393" fill="#879BA6" width="2.544" height="3"/>
		</g>
		<g>
			<rect x="50.323" y="118.393" fill="#879BA6" width="2.545" height="3"/>
		</g>
	</g>
	<g>
		<path fill="#5E7382" d="M246.068,213.537c0,1.73-1.399,3.131-3.131,3.131h-93.683c-1.73,0-3.131-1.4-3.131-3.131v-64.113
			c0-1.729,1.4-3.131,3.131-3.131h93.683c1.731,0,3.131,1.402,3.131,3.131V213.537z"/>
		<rect x="151.024" y="150.786" fill="#F3F3F3" width="90.145" height="57.538"/>
		<g>
			<circle fill="#E5E8EC" cx="195.564" cy="148.47" r="0.419"/>
		</g>
		<rect x="128.953" y="213.124" fill="#E5E8EC" width="134.285" height="3.926"/>
		<g>
			<path fill="#CDD5D7" d="M129.15,217.05c1.587,1.681,4.507,2.34,6.522,2.34h120.846c2.016,0,4.937-0.659,6.523-2.34H129.15z"/>
		</g>
		<g>
			<path fill="#CDD5D7" d="M186.975,213.124v0.42c0,0.774,0.629,1.404,1.403,1.404h15.437c0.774,0,1.403-0.63,1.403-1.404v-0.42
				H186.975z"/>
		</g>
	</g>
	<g>
		<rect x="194.077" y="82.928" fill="#17D0B4" width="2" height="24.667"/>
	</g>
	<g>
		<polygon fill="#17D0B4" points="91.083,102.261 89.083,102.261 89.083,54.023 104.155,54.023 104.155,56.023 91.083,56.023 		"/>
	</g>
	<g>
		<path fill="#FFFFFF" d="M218.085,58.962c0.098-0.831,0.161-1.668,0.161-2.527c0-11.778-9.549-21.33-21.331-21.33
			c-1.997,0-3.928,0.294-5.763,0.81c-2.091-15.251-15.165-27.012-30.999-27.012c-17.287,0-31.301,14.016-31.301,31.295
			c0,0.07,0.002,0.137,0.002,0.207c-9.52,1.086-16.915,9.161-16.915,18.97c0,10.551,8.551,19.102,19.099,19.102h32.146h9.402h8.422
			h18.729h17.212c0.003-0.013,0.009-0.026,0.014-0.042c0.274,0.023,0.546,0.042,0.825,0.042c5.393,0,9.765-4.371,9.765-9.767
			C227.553,63.419,223.342,59.117,218.085,58.962z"/>
	</g>
	<g>
		<linearGradient id="SVGID_5_" gradientUnits="userSpaceOnUse" x1="142.9346" y1="70.8555" x2="183.373" y2="70.8555">
			<stop  offset="0" style="stop-color:#FFDF7D"/>
			<stop  offset="1" style="stop-color:#FEB422"/>
		</linearGradient>
		<polygon fill="url(#SVGID_5_)" points="151.922,49.513 142.935,49.513 142.935,78.719 163.153,94.445 183.373,78.719 
			183.373,49.513 174.388,49.513 174.388,54.006 167.647,54.006 167.647,47.266 158.659,47.266 158.659,54.006 151.922,54.006 		"/>
		<path fill="#009AA2" d="M165.009,71.784h-3.711c-2.048,0-3.711,1.661-3.711,3.711v3.711h11.134v-3.711
			C168.721,73.445,167.06,71.784,165.009,71.784z"/>
		<circle fill="#009AA2" cx="163.154" cy="66.217" r="3.711"/>
	</g>
	<g>
		<g>
			<g>
				<path fill="#D8E5ED" d="M51.653,154.171h56.5H51.653z"/>
				<rect x="51.653" y="153.171" fill="#B5D1DE" width="56.5" height="2"/>
			</g>
			<g>
				<path fill="#D8E5ED" d="M51.653,160.55h56.5H51.653z"/>
				<rect x="51.653" y="159.55" fill="#B5D1DE" width="56.5" height="2"/>
			</g>
			<g>
				<path fill="#D8E5ED" d="M51.653,166.928h56.5H51.653z"/>
				<rect x="51.653" y="165.928" fill="#B5D1DE" width="56.5" height="2"/>
			</g>
			<g>
				<path fill="#D8E5ED" d="M47.099,154.171h-3.307H47.099z"/>
				<rect x="43.792" y="153.171" fill="#B5D1DE" width="3.307" height="2"/>
			</g>
			<g>
				<path fill="#D8E5ED" d="M47.099,160.55h-3.307H47.099z"/>
				<rect x="43.792" y="159.55" fill="#B5D1DE" width="3.307" height="2"/>
			</g>
			<g>
				<path fill="#D8E5ED" d="M47.099,166.928h-3.307H47.099z"/>
				<rect x="43.792" y="165.928" fill="#B5D1DE" width="3.307" height="2"/>
			</g>
			<circle fill="#F5B1AE" cx="117.844" cy="153.937" r="2.095"/>
			<circle fill="#B0D9EF" cx="126.924" cy="153.937" r="2.095"/>
			<circle fill="#D8E5ED" cx="117.844" cy="160.601" r="2.095"/>
			<circle fill="#B2DDC9" cx="126.924" cy="160.601" r="2.095"/>
			<circle fill="#D8E5ED" cx="117.844" cy="167.264" r="2.095"/>
			<circle fill="#B0D9EF" cx="126.924" cy="167.264" r="2.095"/>
		</g>
		<g>
			<path fill="#B5D1DE" d="M57.081,147.419v-1.8c0-1.989-1.611-3.601-3.6-3.601h-6.301c-1.987,0-3.6,1.611-3.6,3.601v1.8H57.081z"/>
			<circle fill="#B5D1DE" cx="50.331" cy="136.169" r="3.15"/>
		</g>
		<g>
			<path fill="#D8E5ED" d="M63.319,137.504h34.5H63.319z"/>
			<rect x="63.319" y="136.504" fill="#B5D1DE" width="34.5" height="2"/>
		</g>
		<g>
			<path fill="#D8E5ED" d="M63.319,142.883h23.096H63.319z"/>
			<rect x="63.319" y="141.883" fill="#B5D1DE" width="23.096" height="2"/>
		</g>
	</g>
	<g>
		<g>
			<path fill="#B5D1DE" d="M171.582,170.562v-1.8c0-1.989-1.612-3.601-3.601-3.601h-6.299c-1.988,0-3.6,1.611-3.6,3.601v1.8H171.582
				z"/>
			<circle fill="#B5D1DE" cx="164.832" cy="159.312" r="3.149"/>
		</g>
		<g>
			<path fill="#D8E5ED" d="M177.82,160.647h42.315H177.82z"/>
			<rect x="177.82" y="159.647" fill="#B5D1DE" width="42.315" height="2"/>
		</g>
		<g>
			<rect x="158.083" y="175.647" fill="#D8E5ED" width="11.506" height="2"/>
		</g>
		<g>
			<rect x="158.083" y="180.647" fill="#D8E5ED" width="15.076" height="2"/>
		</g>
		<g>
			<rect x="158.083" y="185.647" fill="#D8E5ED" width="11.506" height="2"/>
		</g>
		<g>
			<rect x="158.083" y="190.647" fill="#D8E5ED" width="13.076" height="2"/>
		</g>
		<g>
			<rect x="158.083" y="195.647" fill="#D8E5ED" width="9.076" height="2"/>
		</g>
		<g>
			<path fill="#D8E5ED" d="M177.82,176.647h42.315H177.82z"/>
			<rect x="177.82" y="175.647" fill="#B5D1DE" width="42.315" height="2"/>
		</g>
		<g>
			<path fill="#D8E5ED" d="M177.82,204.647h11.659H177.82z"/>
			<rect x="177.82" y="203.647" fill="#B5D1DE" width="11.659" height="2"/>
		</g>
		<g>
			<path fill="#D8E5ED" d="M194.174,204.647h11.659H194.174z"/>
			<rect x="194.174" y="203.647" fill="#B5D1DE" width="11.659" height="2"/>
		</g>
		<g>
			<path fill="#D8E5ED" d="M210.527,204.647h11.659H210.527z"/>
			<rect x="210.527" y="203.647" fill="#B5D1DE" width="11.659" height="2"/>
		</g>
		<g>
			<path fill="#D8E5ED" d="M177.82,166.026h28.327H177.82z"/>
			<rect x="177.82" y="165.026" fill="#B5D1DE" width="28.327" height="2"/>
		</g>
		<linearGradient id="SVGID_6_" gradientUnits="userSpaceOnUse" x1="144.873" y1="181.9717" x2="243.8731" y2="196.9717">
			<stop  offset="0" style="stop-color:#39CBFF"/>
			<stop  offset="1" style="stop-color:#F3F3F3"/>
		</linearGradient>
		<rect x="177.82" y="180.928" fill="url(#SVGID_6_)" width="52.333" height="20"/>
	</g>
	<g>
		<linearGradient id="SVGID_7_" gradientUnits="userSpaceOnUse" x1="167.6836" y1="125.3569" x2="208.0596" y2="125.3569">
			<stop  offset="0" style="stop-color:#009AA2"/>
			<stop  offset="1" style="stop-color:#4DB544"/>
		</linearGradient>
		<path fill="url(#SVGID_7_)" d="M167.684,129.909c0,1.133,0.813,2.048,1.819,2.048h3.527v7.682l8.642-7.682h24.564
			c1.008,0,1.823-0.915,1.823-2.048v-16.788c0-1.132-0.815-2.046-1.823-2.046h-36.733c-1.006,0-1.819,0.915-1.819,2.046V129.909z"/>
	</g>
	<g>
		<g>
			<polygon fill="#FFFFFF" points="79.186,90.866 79.186,74.973 50.841,74.973 50.841,90.866 67.047,90.866 74.887,94.786 
				74.887,90.866 			"/>
		</g>
		<g>
			<path fill="#28F2EC" d="M65.015,86.597l-12.966-9.073c-0.452-0.317-0.562-0.94-0.246-1.393s0.939-0.563,1.393-0.246l11.819,8.271
				l11.817-8.271c0.453-0.317,1.076-0.207,1.393,0.246c0.316,0.452,0.206,1.076-0.246,1.393L65.015,86.597z"/>
		</g>
	</g>
	<polygon fill="#FFFFFF" points="215.536,94.24 209.153,97.928 202.771,101.611 202.771,94.24 202.771,86.871 209.153,90.555 	"/>
	<g>
		<rect x="176.153" y="117.928" fill="#FFFFFF" width="23" height="2"/>
	</g>
	<g>
		<rect x="176.153" y="122.928" fill="#FFFFFF" width="23" height="2"/>
	</g>
</g>
</svg>
