<?xml version="1.0" encoding="utf-8"?>
<!-- Generator: Adobe Illustrator 16.0.0, SVG Export Plug-In . SVG Version: 6.00 Build 0)  -->
<!DOCTYPE svg PUBLIC "-//W3C//DTD SVG 1.1//EN" "http://www.w3.org/Graphics/SVG/1.1/DTD/svg11.dtd">
<svg version="1.1" id="Layer_4" xmlns="http://www.w3.org/2000/svg" xmlns:xlink="http://www.w3.org/1999/xlink" x="0px" y="0px"
	 width="290.392px" height="261.855px" viewBox="0 0 290.392 261.855" enable-background="new 0 0 290.392 261.855"
	 xml:space="preserve">
<g>
	<linearGradient id="SVGID_1_" gradientUnits="userSpaceOnUse" x1="5.6528" y1="130.9277" x2="290.3921" y2="130.9277">
		<stop  offset="0" style="stop-color:#F3F3F3"/>
		<stop  offset="1" style="stop-color:#39CBFF"/>
	</linearGradient>
	<path fill="url(#SVGID_1_)" d="M102.432,261.855c-16.5,0-36.75-11.691-45-25.98L11.84,156.909c-8.25-14.29-8.25-37.672,0-51.962
		l45.591-78.966c8.25-14.29,28.5-25.981,45-25.981h91.182c16.5,0,36.75,11.691,45,25.981l45.591,78.966
		c8.25,14.29,8.25,37.672,0,51.962l-45.591,78.966c-8.25,14.289-28.5,25.98-45,25.98H102.432z"/>
	<linearGradient id="SVGID_2_" gradientUnits="userSpaceOnUse" x1="30" y1="48.9277" x2="132" y2="48.9277">
		<stop  offset="0" style="stop-color:#E04037"/>
		<stop  offset="1" style="stop-color:#F95830"/>
	</linearGradient>
	<path fill="url(#SVGID_2_)" d="M132,71.928c0,1.657-1.343,3-3,3h-13v12l-18-12H33c-1.657,0-3-1.343-3-3v-58c0-1.657,1.343-3,3-3h96
		c1.657,0,3,1.343,3,3V71.928z"/>
	<linearGradient id="SVGID_3_" gradientUnits="userSpaceOnUse" x1="35" y1="48.9277" x2="137" y2="48.9277">
		<stop  offset="0" style="stop-color:#F95830"/>
		<stop  offset="1" style="stop-color:#E04037"/>
	</linearGradient>
	<path fill="url(#SVGID_3_)" d="M137,71.928c0,1.657-1.343,3-3,3h-13v12l-18-12H38c-1.657,0-3-1.343-3-3v-58c0-1.657,1.343-3,3-3h96
		c1.657,0,3,1.343,3,3V71.928z"/>
	<linearGradient id="SVGID_4_" gradientUnits="userSpaceOnUse" x1="5" y1="187.9277" x2="107" y2="187.9277">
		<stop  offset="0" style="stop-color:#4DB544"/>
		<stop  offset="1" style="stop-color:#B5DA60"/>
	</linearGradient>
	<path fill="url(#SVGID_4_)" d="M107,210.928c0,1.656-1.343,3-3,3H91v12l-18-12H8c-1.657,0-3-1.344-3-3v-58c0-1.656,1.343-3,3-3h96
		c1.657,0,3,1.344,3,3V210.928z"/>
	<linearGradient id="SVGID_5_" gradientUnits="userSpaceOnUse" x1="10" y1="187.9277" x2="112" y2="187.9277">
		<stop  offset="0" style="stop-color:#B5DA60"/>
		<stop  offset="1" style="stop-color:#4DB544"/>
	</linearGradient>
	<path fill="url(#SVGID_5_)" d="M112,210.928c0,1.656-1.343,3-3,3H96v12l-18-12H13c-1.657,0-3-1.344-3-3v-58c0-1.656,1.343-3,3-3h96
		c1.657,0,3,1.344,3,3V210.928z"/>
	<linearGradient id="SVGID_6_" gradientUnits="userSpaceOnUse" x1="148" y1="115.4277" x2="250" y2="115.4277">
		<stop  offset="0" style="stop-color:#4DB544"/>
		<stop  offset="1" style="stop-color:#B5DA60"/>
	</linearGradient>
	<path fill="url(#SVGID_6_)" d="M250,126.928c0,1.657-1.343,3-3,3h-13v12l-18-12h-65c-1.657,0-3-1.343-3-3v-35c0-1.657,1.343-3,3-3
		h96c1.657,0,3,1.343,3,3V126.928z"/>
	<linearGradient id="SVGID_7_" gradientUnits="userSpaceOnUse" x1="153" y1="115.4277" x2="255" y2="115.4277">
		<stop  offset="0" style="stop-color:#B5DA60"/>
		<stop  offset="1" style="stop-color:#4DB544"/>
	</linearGradient>
	<path fill="url(#SVGID_7_)" d="M255,126.928c0,1.657-1.343,3-3,3h-13v12l-18-12h-65c-1.657,0-3-1.343-3-3v-35c0-1.657,1.343-3,3-3
		h96c1.657,0,3,1.343,3,3V126.928z"/>
	<linearGradient id="SVGID_8_" gradientUnits="userSpaceOnUse" x1="120" y1="225.4277" x2="222" y2="225.4277">
		<stop  offset="0" style="stop-color:#007ACD"/>
		<stop  offset="1" style="stop-color:#39CBFF"/>
	</linearGradient>
	<path fill="url(#SVGID_8_)" d="M222,213.928c0-1.656-1.343-3-3-3h-13v-12l-18,12h-65c-1.657,0-3,1.344-3,3v35c0,1.656,1.343,3,3,3
		h96c1.657,0,3-1.344,3-3V213.928z"/>
	<linearGradient id="SVGID_9_" gradientUnits="userSpaceOnUse" x1="125" y1="225.4277" x2="227" y2="225.4277">
		<stop  offset="0" style="stop-color:#39CBFF"/>
		<stop  offset="1" style="stop-color:#007ACD"/>
	</linearGradient>
	<path fill="url(#SVGID_9_)" d="M227,213.928c0-1.656-1.343-3-3-3h-13v-12l-18,12h-65c-1.657,0-3,1.344-3,3v35c0,1.656,1.343,3,3,3
		h96c1.657,0,3-1.344,3-3V213.928z"/>
	<linearGradient id="SVGID_10_" gradientUnits="userSpaceOnUse" x1="0" y1="115.9277" x2="128" y2="115.9277">
		<stop  offset="0" style="stop-color:#007ACD"/>
		<stop  offset="1" style="stop-color:#39CBFF"/>
	</linearGradient>
	<rect y="94.928" fill="url(#SVGID_10_)" width="128" height="42"/>
	<linearGradient id="SVGID_11_" gradientUnits="userSpaceOnUse" x1="146" y1="53.4277" x2="233" y2="53.4277">
		<stop  offset="0" style="stop-color:#007ACD"/>
		<stop  offset="1" style="stop-color:#39CBFF"/>
	</linearGradient>
	<rect x="146" y="32.928" fill="url(#SVGID_11_)" width="87" height="41"/>
	<linearGradient id="SVGID_12_" gradientUnits="userSpaceOnUse" x1="122" y1="170.4277" x2="207" y2="170.4277">
		<stop  offset="0" style="stop-color:#E04037"/>
		<stop  offset="1" style="stop-color:#F95830"/>
	</linearGradient>
	<rect x="122" y="149.928" fill="url(#SVGID_12_)" width="85" height="41"/>
	<linearGradient id="SVGID_13_" gradientUnits="userSpaceOnUse" x1="5" y1="115.9277" x2="133" y2="115.9277">
		<stop  offset="0" style="stop-color:#39CBFF"/>
		<stop  offset="1" style="stop-color:#007ACD"/>
	</linearGradient>
	<rect x="5" y="94.928" fill="url(#SVGID_13_)" width="128" height="42"/>
	<linearGradient id="SVGID_14_" gradientUnits="userSpaceOnUse" x1="151" y1="53.4277" x2="238" y2="53.4277">
		<stop  offset="0" style="stop-color:#39CBFF"/>
		<stop  offset="1" style="stop-color:#007ACD"/>
	</linearGradient>
	<rect x="151" y="32.928" fill="url(#SVGID_14_)" width="87" height="41"/>
	<linearGradient id="SVGID_15_" gradientUnits="userSpaceOnUse" x1="127" y1="170.4277" x2="212" y2="170.4277">
		<stop  offset="0" style="stop-color:#F95830"/>
		<stop  offset="1" style="stop-color:#E04037"/>
	</linearGradient>
	<rect x="127" y="149.928" fill="url(#SVGID_15_)" width="85" height="41"/>
	<g>
		<path fill="#FFFFFF" d="M58.5,36.928v-2c0-2.21-1.791-4-4-4h-7c-2.209,0-4,1.79-4,4v2H58.5z"/>
		<circle fill="#FFFFFF" cx="51" cy="24.428" r="3.5"/>
	</g>
	<g>
		<g>
			<rect x="68.404" y="21.928" fill="#FFFFFF" width="28.596" height="3"/>
		</g>
		<g>
			<rect x="117.309" y="21.928" fill="#FFFFFF" width="7.596" height="3"/>
		</g>
		<g>
			<rect x="68.404" y="30.213" fill="#FFFFFF" width="56.5" height="3"/>
		</g>
		<g>
			<rect x="68.404" y="37.267" fill="#FFFFFF" width="56.5" height="3"/>
		</g>
		<g>
			<rect x="68.404" y="44.32" fill="#FFFFFF" width="56.5" height="3"/>
		</g>
		<g>
			<rect x="68.404" y="51.374" fill="#FFFFFF" width="56.5" height="3"/>
		</g>
		<g>
			<rect x="68.404" y="58.428" fill="#FFFFFF" width="48.5" height="3"/>
		</g>
	</g>
	<g>
		<path fill="#FFFFFF" d="M36,175.928v-2c0-2.21-1.791-4-4-4h-7c-2.209,0-4,1.79-4,4v2H36z"/>
		<circle fill="#FFFFFF" cx="28.5" cy="163.428" r="3.5"/>
	</g>
	<g>
		<g>
			<rect x="45.904" y="160.928" fill="#FFFFFF" width="28.596" height="3"/>
		</g>
		<g>
			<rect x="94.809" y="160.928" fill="#FFFFFF" width="7.596" height="3"/>
		</g>
		<g>
			<rect x="45.904" y="169.213" fill="#FFFFFF" width="56.5" height="3"/>
		</g>
		<g>
			<rect x="45.904" y="176.267" fill="#FFFFFF" width="56.5" height="3"/>
		</g>
		<g>
			<rect x="45.904" y="183.32" fill="#FFFFFF" width="56.5" height="3"/>
		</g>
		<g>
			<rect x="45.904" y="190.374" fill="#FFFFFF" width="56.5" height="3"/>
		</g>
		<g>
			<rect x="45.904" y="197.428" fill="#FFFFFF" width="48.5" height="3"/>
		</g>
	</g>
	<g>
		<g>
			<rect x="162.904" y="225.213" fill="#FFFFFF" width="56.5" height="3"/>
		</g>
		<g>
			<rect x="162.905" y="232.267" fill="#FFFFFF" width="43.429" height="3"/>
		</g>
	</g>
	<g>
		<path fill="#FFFFFF" d="M176.667,112.261v-2c0-2.21-1.791-4-4-4h-7c-2.209,0-4,1.79-4,4v2H176.667z"/>
		<circle fill="#FFFFFF" cx="169.167" cy="99.761" r="3.5"/>
	</g>
	<g>
		<g>
			<rect x="186.571" y="97.261" fill="#FFFFFF" width="43.096" height="3"/>
		</g>
		<g>
			<rect x="235.476" y="97.261" fill="#FFFFFF" width="7.596" height="3"/>
		</g>
		<g>
			<rect x="186.571" y="105.546" fill="#FFFFFF" width="56.5" height="3"/>
		</g>
		<g>
			<rect x="186.571" y="112.6" fill="#FFFFFF" width="56.5" height="3"/>
		</g>
		<g>
			<rect x="186.571" y="119.654" fill="#FFFFFF" width="17.096" height="3"/>
		</g>
	</g>
	<g>
		<g>
			<path fill="#FFFFFF" d="M31.919,111.25c0.712,1.201,1.129,2.597,1.129,4.092c0,4.438-3.61,8.049-8.048,8.049
				s-8.048-3.611-8.048-8.049s3.61-8.047,8.048-8.047c1.494,0,2.89,0.416,4.09,1.129l1.454-1.453
				c-1.591-1.058-3.496-1.676-5.544-1.676c-5.54,0-10.048,4.506-10.048,10.047c0,5.54,4.508,10.049,10.048,10.049
				s10.048-4.509,10.048-10.049c0-2.049-0.619-3.954-1.676-5.545L31.919,111.25z"/>
			<polygon fill="#FFFFFF" points="25,116.756 21.293,113.049 22.707,111.635 25,113.928 33.293,105.635 34.707,107.049 			"/>
		</g>
		<g>
			<rect x="24" y="106.295" fill="#FFFFFF" width="2" height="3"/>
		</g>
		<g>
			<rect x="24" y="121.342" fill="#FFFFFF" width="2" height="3"/>
		</g>
		<g>
			<rect x="31.048" y="114.342" fill="#FFFFFF" width="3" height="2"/>
		</g>
		<g>
			<rect x="16" y="114.342" fill="#FFFFFF" width="3" height="2"/>
		</g>
	</g>
	<g>
		<path fill="#FFFFFF" d="M60.475,115.336c0,3.086-0.506,5.37-1.517,6.852c-1.011,1.482-2.568,2.224-4.671,2.224
			c-2.038,0-3.575-0.765-4.61-2.296c-1.035-1.53-1.553-3.79-1.553-6.779c0-3.118,0.503-5.416,1.511-6.895
			c1.007-1.479,2.558-2.218,4.652-2.218c2.038,0,3.579,0.773,4.623,2.32S60.475,112.355,60.475,115.336z M51.834,115.336
			c0,2.167,0.188,3.72,0.562,4.659s1.005,1.408,1.891,1.408c0.87,0,1.499-0.475,1.885-1.426s0.58-2.498,0.58-4.641
			c0-2.167-0.195-3.724-0.586-4.671c-0.391-0.947-1.017-1.42-1.879-1.42c-0.878,0-1.507,0.473-1.885,1.42
			S51.834,113.168,51.834,115.336z"/>
		<path fill="#FFFFFF" d="M74.626,114.043c0,3.48-0.733,6.079-2.199,7.794c-1.466,1.716-3.686,2.574-6.659,2.574
			c-1.047,0-1.841-0.057-2.381-0.169v-2.997c0.677,0.169,1.386,0.254,2.127,0.254c1.249,0,2.276-0.183,3.082-0.55
			c0.806-0.366,1.422-0.942,1.849-1.728c0.427-0.786,0.672-1.867,0.737-3.245h-0.145c-0.468,0.757-1.007,1.289-1.62,1.595
			c-0.612,0.307-1.377,0.459-2.296,0.459c-1.539,0-2.751-0.493-3.638-1.48c-0.886-0.987-1.33-2.358-1.33-4.115
			c0-1.893,0.538-3.39,1.613-4.49c1.076-1.1,2.54-1.649,4.393-1.649c1.305,0,2.447,0.306,3.426,0.918
			c0.979,0.612,1.73,1.5,2.254,2.665C74.364,111.044,74.626,112.432,74.626,114.043z M68.233,109.293
			c-0.773,0-1.378,0.266-1.813,0.797s-0.652,1.297-0.652,2.296c0,0.854,0.197,1.531,0.592,2.03c0.395,0.5,0.995,0.749,1.8,0.749
			c0.757,0,1.406-0.248,1.946-0.743c0.54-0.496,0.81-1.065,0.81-1.71c0-0.958-0.252-1.769-0.755-2.429
			C69.657,109.624,69.015,109.293,68.233,109.293z"/>
		<path fill="#FFFFFF" d="M76.898,112.459c0-0.677,0.181-1.188,0.543-1.535c0.363-0.346,0.89-0.52,1.583-0.52
			c0.668,0,1.186,0.177,1.553,0.532c0.366,0.354,0.55,0.862,0.55,1.522c0,0.653-0.188,1.158-0.562,1.517
			c-0.375,0.359-0.888,0.538-1.541,0.538c-0.677,0-1.201-0.177-1.571-0.532S76.898,113.12,76.898,112.459z M76.898,122.442
			c0-0.677,0.181-1.188,0.543-1.535c0.363-0.347,0.89-0.52,1.583-0.52c0.668,0,1.186,0.177,1.553,0.532
			c0.366,0.355,0.55,0.862,0.55,1.523c0,0.636-0.186,1.138-0.556,1.504c-0.371,0.367-0.887,0.55-1.547,0.55
			c-0.677,0-1.201-0.179-1.571-0.538S76.898,123.094,76.898,122.442z"/>
		<path fill="#FFFFFF" d="M95.195,110.454c0,1.104-0.334,2.042-1.003,2.816c-0.669,0.773-1.607,1.305-2.816,1.595v0.073
			c1.426,0.177,2.505,0.61,3.239,1.299c0.733,0.688,1.1,1.617,1.1,2.785c0,1.7-0.616,3.023-1.849,3.97
			c-1.232,0.947-2.993,1.42-5.281,1.42c-1.917,0-3.618-0.318-5.1-0.955v-3.179c0.685,0.347,1.438,0.629,2.26,0.846
			c0.822,0.217,1.636,0.326,2.441,0.326c1.232,0,2.143-0.209,2.731-0.628c0.588-0.418,0.882-1.091,0.882-2.018
			c0-0.83-0.338-1.418-1.015-1.764c-0.677-0.347-1.756-0.52-3.239-0.52h-1.341v-2.864h1.366c1.369,0,2.37-0.179,3.003-0.538
			c0.632-0.358,0.949-0.973,0.949-1.843c0-1.337-0.838-2.006-2.514-2.006c-0.58,0-1.17,0.097-1.771,0.29s-1.267,0.528-2,1.003
			l-1.728-2.574c1.611-1.16,3.533-1.74,5.765-1.74c1.829,0,3.272,0.371,4.332,1.112S95.195,109.132,95.195,110.454z"/>
		<path fill="#FFFFFF" d="M104.089,112.883c1.708,0,3.067,0.479,4.079,1.438c1.011,0.959,1.517,2.272,1.517,3.939
			c0,1.974-0.608,3.493-1.825,4.556c-1.217,1.063-2.957,1.595-5.221,1.595c-1.966,0-3.553-0.318-4.761-0.955v-3.227
			c0.636,0.338,1.377,0.614,2.224,0.828c0.846,0.213,1.647,0.32,2.405,0.32c2.28,0,3.42-0.935,3.42-2.804
			c0-1.781-1.18-2.671-3.541-2.671c-0.427,0-0.898,0.042-1.414,0.127c-0.516,0.084-0.935,0.175-1.257,0.272l-1.487-0.798
			l0.665-9.003h9.583v3.166h-6.308l-0.326,3.468l0.423-0.084C102.756,112.939,103.364,112.883,104.089,112.883z"/>
	</g>
	<g>
		<path fill="#FFFFFF" d="M195.121,62.17h-3.734V51.946l0.036-1.68l0.061-1.837c-0.621,0.621-1.051,1.027-1.293,1.221l-2.03,1.631
			l-1.801-2.248l5.692-4.532h3.07V62.17z"/>
		<path fill="#FFFFFF" d="M201.767,62.17l6.635-14.502h-8.713v-3.142h12.677v2.344l-6.683,15.3H201.767z"/>
		<path fill="#FFFFFF" d="M226.892,58.508h-2.127v3.662h-3.649v-3.662h-7.541V55.91l7.747-11.408h3.444v11.106h2.127V58.508z
			 M221.115,55.608v-2.997c0-0.5,0.02-1.225,0.061-2.175c0.04-0.951,0.072-1.502,0.097-1.656h-0.097
			c-0.298,0.661-0.657,1.305-1.076,1.934l-3.239,4.895H221.115z"/>
	</g>
	<g>
		<path fill="#FFFFFF" d="M170.984,167.55c1.708,0,3.067,0.479,4.079,1.438c1.011,0.959,1.517,2.271,1.517,3.939
			c0,1.974-0.608,3.492-1.825,4.556c-1.217,1.063-2.957,1.595-5.221,1.595c-1.966,0-3.553-0.318-4.762-0.954v-3.227
			c0.636,0.338,1.378,0.614,2.224,0.827c0.846,0.214,1.647,0.32,2.405,0.32c2.28,0,3.42-0.934,3.42-2.803
			c0-1.781-1.181-2.672-3.541-2.672c-0.427,0-0.898,0.043-1.414,0.127c-0.516,0.085-0.935,0.176-1.257,0.272l-1.486-0.798
			l0.665-9.003h9.583v3.166h-6.308l-0.327,3.468l0.423-0.084C169.65,167.605,170.259,167.55,170.984,167.55z"/>
		<path fill="#FFFFFF" d="M178.561,171.332c0-3.496,0.739-6.099,2.217-7.807s3.692-2.562,6.641-2.562
			c1.007,0,1.796,0.061,2.369,0.182v2.984c-0.717-0.16-1.426-0.241-2.127-0.241c-1.281,0-2.326,0.193-3.136,0.58
			c-0.81,0.387-1.416,0.959-1.819,1.716c-0.403,0.758-0.641,1.834-0.713,3.227h0.157c0.797-1.369,2.074-2.054,3.831-2.054
			c1.579,0,2.815,0.495,3.71,1.486c0.894,0.991,1.341,2.36,1.341,4.108c0,1.886-0.532,3.378-1.595,4.479
			c-1.063,1.1-2.538,1.648-4.423,1.648c-1.306,0-2.443-0.302-3.414-0.906c-0.971-0.604-1.721-1.486-2.248-2.646
			C178.825,174.365,178.561,172.968,178.561,171.332z M184.942,176.094c0.797,0,1.41-0.268,1.837-0.804
			c0.427-0.536,0.641-1.3,0.641-2.29c0-0.862-0.2-1.541-0.598-2.037c-0.399-0.494-1.001-0.742-1.807-0.742
			c-0.758,0-1.404,0.246-1.94,0.736c-0.536,0.492-0.804,1.064-0.804,1.717c0,0.959,0.252,1.769,0.755,2.429
			C183.53,175.764,184.168,176.094,184.942,176.094z"/>
	</g>
	<g>
		<path fill="#FFFFFF" d="M172,56.928c-2.206,0-4-1.794-4-4s1.794-4,4-4s4,1.794,4,4S174.206,56.928,172,56.928z"/>
		<g>
			<g>
				<path fill="#FFFFFF" d="M172.045,59.832c-3.924,0-7.672-2.194-10.84-6.345l-0.463-0.606l0.463-0.606
					c3.167-4.152,6.915-6.346,10.84-6.346c3.924,0,7.672,2.194,10.84,6.346l0.463,0.606l-0.463,0.607
					C179.716,57.638,175.968,59.832,172.045,59.832z M163.274,52.88c2.661,3.243,5.681,4.952,8.771,4.952
					c3.088,0,6.108-1.708,8.77-4.952c-2.661-3.244-5.681-4.953-8.77-4.953C168.955,47.928,165.935,49.637,163.274,52.88z"/>
			</g>
			<circle fill="#FFFFFF" cx="172" cy="52.928" r="2"/>
		</g>
	</g>
	<path fill="#FFFFFF" d="M152.847,164.698c-1.636-1.636-4.287-1.636-5.922,0l-0.985,0.985l-0.985-0.985
		c-1.635-1.636-4.285-1.636-5.923,0c-1.631,1.633-1.631,4.282,0,5.914l0.99,0.99l0,0l5.918,5.916l5.917-5.916l0,0l0.99-0.99
		C154.479,168.979,154.479,166.328,152.847,164.698z"/>
	<path fill="#FFFFFF" d="M153.779,237.058v-1.131c0-1.103-0.897-2-2-2h-7c-1.103,0-2,0.897-2,2v6c0,1.103,0.897,2,2,2h7
		c1.103,0,2-0.897,2-2v-1.132l3,2v-7.736L153.779,237.058z"/>
	<g>
		<path fill="#FFFFFF" d="M141.279,228.927c-2.481,0-4.5-2.019-4.5-4.5s2.019-4.5,4.5-4.5s4.5,2.019,4.5,4.5
			S143.761,228.927,141.279,228.927z M141.279,221.927c-1.378,0-2.5,1.121-2.5,2.5s1.122,2.5,2.5,2.5s2.5-1.121,2.5-2.5
			S142.658,221.927,141.279,221.927z"/>
	</g>
	<path fill="#FFFFFF" d="M134.779,234.927c0-1.654,1.346-3,3-3h7c0.883,0,1.671,0.391,2.221,1.001h2.355
		c-0.773-1.764-2.531-3.001-4.576-3.001h-7c-2.757,0-5,2.243-5,5v3h9v-2h-7V234.927z"/>
	<g>
		<linearGradient id="SVGID_16_" gradientUnits="userSpaceOnUse" x1="302.7554" y1="241.4404" x2="257.7528" y2="168.4363">
			<stop  offset="0" style="stop-color:#39CBFF"/>
			<stop  offset="1" style="stop-color:#007ACD"/>
		</linearGradient>
		<circle fill="url(#SVGID_16_)" cx="251.606" cy="158.465" r="8.538"/>
		<linearGradient id="SVGID_17_" gradientUnits="userSpaceOnUse" x1="289.873" y1="249.375" x2="244.8734" y2="176.3756">
			<stop  offset="0" style="stop-color:#39CBFF"/>
			<stop  offset="1" style="stop-color:#007ACD"/>
		</linearGradient>
		<path fill="url(#SVGID_17_)" d="M281.491,149.928h-8.536c0,11.768-9.575,21.344-21.345,21.344
			c-11.77,0-21.344-9.576-21.344-21.344h-8.538c0,11.895,6.989,22.187,17.075,26.992v28.501v8.538v38.419h8.538v-38.419h8.538
			v38.419h8.538v-38.419v-8.538V176.92C274.502,172.114,281.491,161.822,281.491,149.928z"/>
	</g>
</g>
</svg>
